<svg width="36" height="36" viewBox="0 0 36 36" fill="none" xmlns="http://www.w3.org/2000/svg">
<path d="M33 0H3C1.34315 0 0 1.34315 0 3V33C0 34.6569 1.34315 36 3 36H33C34.6569 36 36 34.6569 36 33V3C36 1.34315 34.6569 0 33 0Z" fill="#121212"/>
<path d="M21.6869 15.7066L24.574 12.9062C22.567 11.809 20.3143 11.2392 18.027 11.2502C15.7397 11.2611 13.4926 11.8526 11.4963 12.969C9.49999 14.0854 7.81971 15.6904 6.61291 17.6334C5.40611 19.5765 4.71228 21.7941 4.59644 24.0785H8.37382C8.48205 22.5504 8.94894 21.0694 9.73665 19.7555C10.5242 18.4416 11.6105 17.3319 12.9073 16.5163C14.2041 15.7008 15.6748 15.2024 17.2002 15.0615C18.7256 14.9207 20.2628 15.1423 21.6869 15.7066Z" fill="white"/>
<path d="M31.5966 24.0766H27.8199C27.6679 21.8966 26.7835 19.8319 25.3103 18.2179L19.2602 24.0766H15.2764L15.9346 23.4386L19.2165 20.2529L23.1499 16.4336L24.8536 14.7815L25.9192 13.7472C26.0558 13.8435 26.1901 13.9464 26.3244 14.0494C26.4968 14.1815 26.6669 14.3203 26.8326 14.4613C26.8572 14.4815 26.8841 14.5016 26.9087 14.524C27.0072 14.6069 27.099 14.6964 27.1953 14.7837C27.4796 15.0434 27.7572 15.3143 28.0214 15.5964C30.1716 17.9158 31.4372 20.9178 31.5966 24.0766Z" fill="white"/>
</svg>
